<svg width="16" height="16" viewBox="0 0 16 16" fill="none" xmlns="http://www.w3.org/2000/svg">
<path d="M8.00007 3.06308C7.27367 2.39515 6.32288 2.02445 5.33607 2.02441C4.81376 2.02496 4.29672 2.12879 3.81469 2.32993C3.33267 2.53107 2.89518 2.82554 2.5274 3.19641C0.958735 4.77175 0.959402 7.23575 2.52874 8.80441L7.41674 13.6924C7.53007 13.8917 7.74874 14.0204 8.00007 14.0204C8.10327 14.0194 8.20479 13.9942 8.29649 13.9469C8.38819 13.8995 8.46751 13.8313 8.52807 13.7477L13.4714 8.80441C15.0407 7.23508 15.0407 4.77175 13.4701 3.19375C13.1025 2.82356 12.6653 2.52968 12.1838 2.329C11.7022 2.12833 11.1858 2.02481 10.6641 2.02441C9.67729 2.02458 8.72654 2.39526 8.00007 3.06308ZM12.5274 4.13641C13.5694 5.18375 13.5701 6.81975 12.5287 7.86175L8.00007 12.3904L3.4714 7.86175C2.43007 6.81975 2.43074 5.18375 3.47007 4.13908C3.97674 3.63508 4.6394 3.35775 5.33607 3.35775C6.03274 3.35775 6.69274 3.63508 7.1954 4.13775L7.52874 4.47108C7.59059 4.53304 7.66406 4.5822 7.74494 4.61574C7.82582 4.64928 7.91251 4.66655 8.00007 4.66655C8.08762 4.66655 8.17432 4.64928 8.2552 4.61574C8.33607 4.5822 8.40954 4.53304 8.4714 4.47108L8.80474 4.13775C9.81274 3.13175 11.5207 3.13441 12.5274 4.13641Z" fill="#BDC5CB"/>
</svg>
