<svg width="24" height="24" viewBox="0 0 24 24" fill="none" xmlns="http://www.w3.org/2000/svg">
<path d="M7.5 11.0001H5.097C4.04266 10.9815 3.14135 11.8548 3 12.8998V19.1998C3.14135 20.2448 4.04266 21.0184 5.097 20.9998C5.898 20.9999 6.699 20.9999 7.5 21M7.5 11.0001L11.1 3C12.5912 3 13.8 4.20883 13.8 5.7V9.3H19.2C19.7281 9.294 20.2321 9.52025 20.5786 9.91875C20.9252 10.3173 21.0793 10.8478 21 11.37L19.758 19.47C19.6234 20.3574 18.8556 21.0102 17.958 21C14.472 21.0001 10.986 21.0001 7.5 21M7.5 11.0001V21" stroke="white" stroke-width="2" stroke-linejoin="round"/>
</svg>
